<svg width="15" height="13" viewBox="0 0 15 13" fill="none" xmlns="http://www.w3.org/2000/svg">
<path d="M14.6249 4.06248C14.6249 6.13435 13.4265 8.26039 11.0635 10.3864C9.99049 11.351 8.82216 12.204 7.57653 12.9322C7.49562 12.9767 7.40479 13 7.31247 13C7.22015 13 7.12933 12.9767 7.04841 12.9322C6.75727 12.7697 0 8.9307 0 4.06248C0 3.20984 0.268276 2.37881 0.766826 1.68711C1.26538 0.995407 1.96892 0.478103 2.77781 0.208473C3.5867 -0.0611565 4.45993 -0.0694429 5.27379 0.184788C6.08765 0.439019 6.80089 0.942878 7.31247 1.62499C7.82406 0.942878 8.5373 0.439019 9.35116 0.184788C10.165 -0.0694429 11.0382 -0.0611565 11.8471 0.208473C12.656 0.478103 13.3596 0.995407 13.8581 1.68711C14.3567 2.37881 14.6249 3.20984 14.6249 4.06248Z" fill="#D2D6DA"/>
</svg>
